<svg height="448pt" viewBox="0 0 448 448" width="448pt" xmlns="http://www.w3.org/2000/svg"><path d="m166.777344 256h130.445312l13.328125-80h-157.101562zm0 0"/><path d="m224 0c-123.710938 0-224 100.289062-224 224s100.289062 224 224 224 224-100.289062 224-224c-.140625-123.652344-100.347656-223.859375-224-224zm-48 336c-13.253906 0-24-10.746094-24-24s10.746094-24 24-24 24 10.746094 24 24-10.746094 24-24 24zm112 0c-13.253906 0-24-10.746094-24-24s10.746094-24 24-24 24 10.746094 24 24-10.746094 24-24 24zm23.886719-70.6875c-.640625 3.855469-3.976563 6.6875-7.886719 6.6875h-144c-3.910156 0-7.246094-2.832031-7.886719-6.6875l-16-96-6.890625-41.3125h-33.222656c-4.417969 0-8-3.582031-8-8s3.582031-8 8-8h40c3.910156 0 7.246094 2.832031 7.886719 6.6875l6.890625 41.3125h169.222656c2.351562 0 4.582031 1.035156 6.101562 2.828125 1.519532 1.792969 2.171876 4.164063 1.785157 6.484375zm0 0"/><path d="m184 312c0 4.417969-3.582031 8-8 8s-8-3.582031-8-8 3.582031-8 8-8 8 3.582031 8 8zm0 0"/><path d="m296 312c0 4.417969-3.582031 8-8 8s-8-3.582031-8-8 3.582031-8 8-8 8 3.582031 8 8zm0 0"/><style>path{fill:#bc2024;}</style></svg>